<svg xmlns="http://www.w3.org/2000/svg" viewBox="0 0 600 600"><rect width="600" height="600" rx="12" fill="#090909"/><g fill="#ff0055"><path d="M300 105c0-27 30-44 53-27l72 55c58 44 102 91 102 160 0 64-27 107-67 137-18 13-42 1-42-21 0-8 3-15 9-21 28-26 43-53 43-95 0-45-29-77-79-112l-39-27v235c0 25-14 43-35 53-12 6-26 9-42 9-48 0-83-31-83-74 0-43 35-76 83-76 17 0 34 4 45 12V105z"/><path d="M177 432c-17 0-32-14-32-32 0-10 5-19 13-25 23-18 48-27 78-27 42 0 78 22 100 56 8 12 5 28-7 36-12 9-28 7-37-5-14-20-33-31-56-31-17 0-33 5-47 16-4 3-8 5-12 5z"/><path d="M322 378c17-10 39-7 51 9l24 31c10 13 7 32-6 42-13 10-32 7-42-6l-23-30c-11-15-13-35-4-46z"/></g></svg>